<svg height="512pt" viewBox="0 0 512 512.0005" width="512pt" xmlns="http://www.w3.org/2000/svg"><path d="m422.183594 323.261719c-.671875.679687-76.628906 98.128906-180.515625 152.191406-36.347657 18.914063-80.414063 34.671875-121.484375 36.390625-4.875.210938-9.726563.210938-14.503906 0-28.371094-1.242188-54.621094-10.128906-74.976563-30.460938-.011719 0-.03125-.019531-.039063-.03125-47.988281-47.984374-32.019531-128.941406-3.871093-190.941406.101562-.097656 6.25-16.632812 20.984375-9.945312 14.714844 6.6875 6.328125 22.242187 6.328125 22.34375-22.0625 48.582031-39.898438 119.671875-2.230469 157.339844.011719.011718.019531.019531.03125.03125 38.929688 38.878906 116.394531 19.644531 175.917969-11.328126 102.945312-53.574218 168.117187-141.496093 171.125-144.554687 5.230469-6.417969 14.675781-7.367187 21.09375-2.140625 6.417969 5.238281 7.378906 14.6875 2.140625 21.105469zm0 0" fill="#da90f8"/><path d="m507.1875 155.511719c-12.566406 58.703125-41.597656 103.449219-54.773438 125.570312-4.5 7.007813-13.785156 8.980469-20.722656 4.519531-6.96875-4.46875-9-13.746093-4.519531-20.710937 4.628906-8.648437 38.539063-58.933594 50.683594-115.65625 9.265625-43.265625 3.25-75.925781-17.902344-97.070313-.011719-.011718-.011719-.011718-.023437-.011718-34.976563-34.957032-95.839844-20.640625-129.007813-8.996094-158.421875 55.644531-251.535156 212.367188-251.695313 212.535156-4.46875 6.976563-13.746093 8.996094-20.710937 4.527344-6.96875-4.46875-9-13.746094-4.53125-20.710938.089844-.101562 97.371094-165.070312 267-224.640624 68.75-24.15625 125.632813-18.4375 160.160156 16.074218.011719 0 .011719 0 .019531.007813 28.390626 28.402343 37.390626 71.46875 26.023438 124.5625zm0 0" fill="#64e1dc"/><path d="m422.183594 323.261719c-.671875.679687-76.628906 98.128906-180.515625 152.191406-36.347657 18.914063-80.414063 34.671875-121.484375 36.390625h-14.503906c-28.371094-1.242188-54.621094-10.128906-74.976563-30.460938l21.203125-21.203124c38.929688 38.878906 116.394531 19.644531 175.917969-11.328126 102.945312-53.574218 168.117187-141.496093 171.125-144.554687 5.230469-6.417969 14.675781-7.367187 21.09375-2.140625 6.417969 5.238281 7.378906 14.6875 2.140625 21.105469zm0 0" fill="#b760ea"/><path d="m507.1875 155.511719c-12.566406 58.703125-41.597656 103.449219-54.773438 125.570312-4.5 7.007813-13.785156 8.980469-20.722656 4.519531-6.96875-4.46875-9-13.746093-4.519531-20.710937 4.628906-8.648437 38.539063-58.933594 50.683594-115.65625 9.265625-43.265625 3.25-75.925781-17.902344-97.070313-.011719-.011718-.011719-.011718-.023437-.011718l21.214843-21.210938c.011719 0 .011719 0 .019531.007813 28.390626 28.402343 37.390626 71.46875 26.023438 124.5625zm0 0" fill="#00c8c8"/><path d="m224.34375 182.605469c-45.6875 41.597656-94.011719 98.410156-119.472656 154.429687-16.753906 36.859375-19.65625 65.972656-7.757813 77.867188.007813.011718.027344.03125.039063.03125 8.988281 8.945312 25.914062 7.917968 38.539062 5.46875 8.125-1.570313 16.003906 3.738281 17.574219 11.875 1.570313 8.128906-3.75 15.996094-11.875 17.566406-23.40625 4.535156-48.625 3.078125-65.441406-13.707031-.011719 0-.03125-.019531-.039063-.03125-21.734375-21.722657-21.144531-61.320313 1.648438-111.476563 27.210937-59.859375 77.996094-119.953125 126.589844-164.199218 6.121093-5.578126 15.605468-5.128907 21.183593.992187 5.570313 6.125 5.128907 15.605469-.988281 21.183594zm0 0" fill="#00c8c8"/><path d="m434.769531 187.082031c-20.753906 45.65625-57.824219 96.441407-104.378906 142.996094-40.027344 40.019531-82.722656 72.757813-123.492187 94.679687-7.265626 3.910157-16.375 1.222657-20.3125-6.105468-3.917969-7.289063-1.191407-16.386719 6.105468-20.304688 37.679688-20.261718 79.046875-52.035156 116.484375-89.472656 44.078125-44.078125 78.988281-91.742188 98.28125-134.199219 16.734375-36.828125 19.644531-65.910156 7.789063-77.835937 0-.007813-.019532-.03125-.03125-.039063-16.792969-16.785156-72.167969-5.519531-145.535156 48.515625-6.667969 4.90625-16.054688 3.476563-20.964844-3.191406-4.90625-6.667969-3.488282-16.054688 3.179687-20.960938 49.117188-36.171874 141.4375-88.664062 184.523438-45.566406.011719.007813.03125.027344.03125.039063 21.703125 21.742187 21.101562 61.3125-1.679688 111.445312zm0 0" fill="#b760ea"/><path d="m153.265625 432.277344c1.570313 8.128906-3.75 15.996094-11.875 17.566406-23.40625 4.535156-48.625 3.078125-65.441406-13.707031l21.203125-21.203125c8.988281 8.945312 25.914062 7.917968 38.539062 5.46875 8.125-1.570313 16.003906 3.738281 17.574219 11.875zm0 0" fill="#1cadb5"/><path d="m434.769531 187.082031c-20.753906 45.65625-57.824219 96.441407-104.378906 142.996094-40.027344 40.019531-82.722656 72.757813-123.492187 94.679687-7.265626 3.910157-16.375 1.222657-20.3125-6.105468-3.917969-7.289063-1.191407-16.386719 6.105468-20.304688 37.679688-20.261718 79.046875-52.035156 116.484375-89.472656 44.078125-44.078125 78.988281-91.742188 98.28125-134.199219 16.734375-36.828125 19.644531-65.910156 7.789063-77.835937l21.203125-21.203125c21.703125 21.742187 21.101562 61.3125-1.679688 111.445312zm0 0" fill="#8b3cba"/><path d="m372.828125 139.257812c0-.011718-.019531-.03125-.03125-.039062-29.21875-29.234375-119.273437 55.652344-148.441406 84.824219-29.171875 29.179687-114.058594 119.222656-84.824219 148.441406.007812.011719.027344.03125.039062.03125 29.261719 29.121094 119.222657-55.671875 148.402344-84.855469 29.210938-29.207031 114.007813-119.183594 84.855469-148.402344zm0 0" fill="#4a696f"/><path d="m287.972656 287.660156c-29.179687 29.183594-119.140625 113.976563-148.402344 84.855469l233.257813-233.257813c29.152344 29.21875-55.644531 119.195313-84.855469 148.402344zm0 0" fill="#384949"/><path d="m480.347656 342.152344c-2.617187-7.855469-11.113281-12.101563-18.96875-9.480469-7.859375 2.617187-12.105468 11.113281-9.484375 18.96875 2.621094 7.855469 11.113281 12.101563 18.96875 9.480469 7.859375-2.617188 12.105469-11.109375 9.484375-18.96875zm0 0" fill="#b4d2d7"/><path d="m90.449219 132.21875c-2.617188-7.859375-11.109375-12.105469-18.96875-9.484375-7.855469 2.621094-12.101563 11.113281-9.484375 18.96875 2.621094 7.859375 11.113281 12.101563 18.972656 9.484375 7.855469-2.621094 12.101562-11.113281 9.480469-18.96875zm0 0" fill="#e1ebf0"/><path d="m29.464844 40.242188c-2.617188-7.855469-11.113282-12.101563-18.96875-9.480469-7.859375 2.617187-12.105469 11.113281-9.484375 18.96875 2.621093 7.855469 11.113281 12.101562 18.96875 9.480469 7.859375-2.617188 12.105469-11.109376 9.484375-18.96875zm0 0" fill="#e1ebf0"/><path d="m300.398438 492.117188c-2.617188-7.859376-11.109376-12.105469-18.96875-9.484376-7.855469 2.621094-12.101563 11.113282-9.484376 18.96875 2.621094 7.859376 11.113282 12.101563 18.972657 9.484376 7.855469-2.621094 12.101562-11.113282 9.480469-18.96875zm0 0" fill="#b4d2d7"/><path d="m436.109375 451.863281h-14.996094v-14.996093c0-8.289063-6.707031-14.996094-14.996093-14.996094-8.289063 0-14.996094 6.707031-14.996094 14.996094v14.996093h-14.992188c-8.289062 0-14.996094 6.707031-14.996094 14.992188 0 8.289062 6.707032 14.996093 14.996094 14.996093h14.992188v14.996094c0 8.289063 6.707031 14.996094 14.996094 14.996094 8.289062 0 14.996093-6.707031 14.996093-14.996094v-14.996094h14.996094c8.289063 0 14.996094-6.707031 14.996094-14.996093 0-8.285157-6.707031-14.992188-14.996094-14.992188zm0 0" fill="#b4d2d7"/><path d="m105.210938 59.980469h14.996093v14.996093c0 8.289063 6.707031 14.996094 14.992188 14.996094 8.289062 0 14.996093-6.707031 14.996093-14.996094v-14.996093h14.996094c8.289063 0 14.996094-6.707031 14.996094-14.996094 0-8.285156-6.707031-14.992187-14.996094-14.992187h-14.996094v-14.996094c0-8.289063-6.707031-14.996094-14.996093-14.996094-8.285157 0-14.992188 6.707031-14.992188 14.996094v14.996094h-14.996093c-8.289063 0-14.996094 6.707031-14.996094 14.992187 0 8.289063 6.707031 14.996094 14.996094 14.996094zm0 0" fill="#e1ebf0"/></svg>